# xmcd CD database file
#
# Track frame offsets:
#	187
#	27172
#	56075
#	77132
#	105512
#	129005
#	154397
#	179197
#	203140
#
# Disc length: 2953 seconds
#
# Revision: 2
# Processed by: cddbd v1.5.2PL0 Copyright (c) Steve Scherf et al.
# Submitted via: CDex 1.70beta2
#
DISCID=750b8709
DTITLE=Yutaka Shiina - Hittin' The Spirit
DYEAR=1995
DGENRE=Jazz
TTITLE0=Hittin' The Trail
TTITLE1=From The Spirit
TTITLE2=Prelude To A Kiss
TTITLE3=Green Chimneys
TTITLE4=Li'l Darlin'
TTITLE5=I Let A Song Go Out Of My Heart
TTITLE6=Lover Man
TTITLE7=The River
TTITLE8=Three Little Words
EXTD=YEAR: 1995
EXTT0=
EXTT1=
EXTT2=
EXTT3=
EXTT4=
EXTT5=
EXTT6=
EXTT7=
EXTT8=
PLAYORDER=
